<mxfile host="Electron" agent="Mozilla/5.0 (Macintosh; Intel Mac OS X 10_15_7) AppleWebKit/537.36 (KHTML, like Gecko) draw.io/24.7.17 Chrome/128.0.6613.36 Electron/32.0.1 Safari/537.36" version="24.7.17">
  <diagram name="Page-1" id="tBIAlemMxgHySIvlNtww">
    <mxGraphModel dx="1283" dy="929" grid="1" gridSize="10" guides="1" tooltips="1" connect="1" arrows="1" fold="1" page="1" pageScale="1" pageWidth="1920" pageHeight="1200" math="0" shadow="0">
      <root>
        <mxCell id="0" />
        <mxCell id="1" parent="0" />
        <mxCell id="CO2slaWPiMj6zAx4tyRY-1" value="&lt;b&gt;Mouse&lt;/b&gt;" style="rounded=1;whiteSpace=wrap;html=1;arcSize=5;" parent="1" vertex="1">
          <mxGeometry x="720" y="680" width="160" height="120" as="geometry" />
        </mxCell>
        <mxCell id="CO2slaWPiMj6zAx4tyRY-2" value="" style="endArrow=classic;html=1;rounded=0;" parent="1" edge="1">
          <mxGeometry width="50" height="50" relative="1" as="geometry">
            <mxPoint x="690" y="700" as="sourcePoint" />
            <mxPoint x="720" y="700" as="targetPoint" />
          </mxGeometry>
        </mxCell>
        <mxCell id="CO2slaWPiMj6zAx4tyRY-3" value="" style="endArrow=classic;html=1;rounded=0;" parent="1" edge="1">
          <mxGeometry width="50" height="50" relative="1" as="geometry">
            <mxPoint x="690" y="720" as="sourcePoint" />
            <mxPoint x="720" y="720" as="targetPoint" />
          </mxGeometry>
        </mxCell>
        <mxCell id="CO2slaWPiMj6zAx4tyRY-4" value="" style="endArrow=classic;html=1;rounded=0;" parent="1" edge="1">
          <mxGeometry width="50" height="50" relative="1" as="geometry">
            <mxPoint x="690" y="739.8" as="sourcePoint" />
            <mxPoint x="720" y="739.8" as="targetPoint" />
          </mxGeometry>
        </mxCell>
        <mxCell id="CO2slaWPiMj6zAx4tyRY-5" value="" style="endArrow=classic;html=1;rounded=0;" parent="1" edge="1">
          <mxGeometry width="50" height="50" relative="1" as="geometry">
            <mxPoint x="690" y="780" as="sourcePoint" />
            <mxPoint x="720" y="780" as="targetPoint" />
          </mxGeometry>
        </mxCell>
        <mxCell id="CO2slaWPiMj6zAx4tyRY-6" value="" style="endArrow=classic;html=1;rounded=0;" parent="1" edge="1">
          <mxGeometry width="50" height="50" relative="1" as="geometry">
            <mxPoint x="690" y="790" as="sourcePoint" />
            <mxPoint x="720" y="790" as="targetPoint" />
          </mxGeometry>
        </mxCell>
        <mxCell id="CO2slaWPiMj6zAx4tyRY-7" value="&lt;font color=&quot;#999999&quot; style=&quot;font-size: 10px;&quot;&gt;h_cnt&lt;/font&gt;" style="text;html=1;align=center;verticalAlign=middle;resizable=0;points=[];autosize=1;strokeColor=none;fillColor=none;allowArrows=1;pointerEvents=0;fontSize=10;" parent="1" vertex="1">
          <mxGeometry x="711" y="685" width="50" height="30" as="geometry" />
        </mxCell>
        <mxCell id="CO2slaWPiMj6zAx4tyRY-9" value="&lt;font color=&quot;#999999&quot; style=&quot;font-size: 10px;&quot;&gt;v_cnt&lt;/font&gt;" style="text;html=1;align=center;verticalAlign=middle;resizable=0;points=[];autosize=1;strokeColor=none;fillColor=none;allowArrows=1;pointerEvents=0;fontSize=10;" parent="1" vertex="1">
          <mxGeometry x="711" y="703" width="50" height="30" as="geometry" />
        </mxCell>
        <mxCell id="CO2slaWPiMj6zAx4tyRY-10" value="" style="triangle;whiteSpace=wrap;html=1;" parent="1" vertex="1">
          <mxGeometry x="720" y="733" width="10" height="15" as="geometry" />
        </mxCell>
        <mxCell id="CO2slaWPiMj6zAx4tyRY-11" value="&lt;font color=&quot;#999999&quot; style=&quot;font-size: 10px;&quot;&gt;PS2_CLK&lt;/font&gt;" style="text;html=1;align=center;verticalAlign=middle;resizable=0;points=[];autosize=1;strokeColor=none;fillColor=none;allowArrows=1;pointerEvents=0;fontSize=10;" parent="1" vertex="1">
          <mxGeometry x="711" y="766" width="70" height="30" as="geometry" />
        </mxCell>
        <mxCell id="CO2slaWPiMj6zAx4tyRY-12" value="&lt;font color=&quot;#999999&quot; style=&quot;font-size: 10px;&quot;&gt;PS2_DATA&lt;/font&gt;" style="text;html=1;align=center;verticalAlign=middle;resizable=0;points=[];autosize=1;strokeColor=none;fillColor=none;allowArrows=1;pointerEvents=0;fontSize=10;" parent="1" vertex="1">
          <mxGeometry x="714" y="776" width="70" height="30" as="geometry" />
        </mxCell>
        <mxCell id="CO2slaWPiMj6zAx4tyRY-13" value="" style="endArrow=classic;html=1;rounded=0;" parent="1" edge="1">
          <mxGeometry width="50" height="50" relative="1" as="geometry">
            <mxPoint x="880" y="780" as="sourcePoint" />
            <mxPoint x="910" y="780" as="targetPoint" />
          </mxGeometry>
        </mxCell>
        <mxCell id="CO2slaWPiMj6zAx4tyRY-14" value="" style="endArrow=classic;html=1;rounded=0;" parent="1" edge="1">
          <mxGeometry width="50" height="50" relative="1" as="geometry">
            <mxPoint x="880" y="790" as="sourcePoint" />
            <mxPoint x="910" y="790" as="targetPoint" />
          </mxGeometry>
        </mxCell>
        <mxCell id="CO2slaWPiMj6zAx4tyRY-15" value="&lt;font color=&quot;#999999&quot; style=&quot;font-size: 10px;&quot;&gt;PS2_CLK&lt;/font&gt;" style="text;html=1;align=center;verticalAlign=middle;resizable=0;points=[];autosize=1;strokeColor=none;fillColor=none;allowArrows=1;pointerEvents=0;fontSize=10;" parent="1" vertex="1">
          <mxGeometry x="819" y="766" width="70" height="30" as="geometry" />
        </mxCell>
        <mxCell id="CO2slaWPiMj6zAx4tyRY-16" value="&lt;font color=&quot;#999999&quot; style=&quot;font-size: 10px;&quot;&gt;PS2_DATA&lt;/font&gt;" style="text;html=1;align=center;verticalAlign=middle;resizable=0;points=[];autosize=1;strokeColor=none;fillColor=none;allowArrows=1;pointerEvents=0;fontSize=10;" parent="1" vertex="1">
          <mxGeometry x="817" y="776" width="70" height="30" as="geometry" />
        </mxCell>
        <mxCell id="CO2slaWPiMj6zAx4tyRY-17" value="" style="endArrow=none;dashed=1;html=1;rounded=0;fontColor=#999999;strokeColor=#999999;dashPattern=1 2;" parent="1" edge="1">
          <mxGeometry width="50" height="50" relative="1" as="geometry">
            <mxPoint x="770" y="780.86" as="sourcePoint" />
            <mxPoint x="830" y="780.86" as="targetPoint" />
          </mxGeometry>
        </mxCell>
        <mxCell id="CO2slaWPiMj6zAx4tyRY-18" value="" style="endArrow=none;dashed=1;html=1;rounded=0;fontColor=#999999;strokeColor=#999999;dashPattern=1 2;" parent="1" edge="1">
          <mxGeometry width="50" height="50" relative="1" as="geometry">
            <mxPoint x="776.5" y="790.86" as="sourcePoint" />
            <mxPoint x="825.5" y="790.86" as="targetPoint" />
          </mxGeometry>
        </mxCell>
        <mxCell id="CO2slaWPiMj6zAx4tyRY-19" value="" style="endArrow=classic;html=1;rounded=0;" parent="1" edge="1">
          <mxGeometry width="50" height="50" relative="1" as="geometry">
            <mxPoint x="880" y="700" as="sourcePoint" />
            <mxPoint x="910" y="700" as="targetPoint" />
          </mxGeometry>
        </mxCell>
        <mxCell id="CO2slaWPiMj6zAx4tyRY-20" value="" style="endArrow=classic;html=1;rounded=0;" parent="1" edge="1">
          <mxGeometry width="50" height="50" relative="1" as="geometry">
            <mxPoint x="880" y="710" as="sourcePoint" />
            <mxPoint x="910" y="710" as="targetPoint" />
          </mxGeometry>
        </mxCell>
        <mxCell id="CO2slaWPiMj6zAx4tyRY-21" value="" style="endArrow=classic;html=1;rounded=0;" parent="1" edge="1">
          <mxGeometry width="50" height="50" relative="1" as="geometry">
            <mxPoint x="880" y="739.8" as="sourcePoint" />
            <mxPoint x="910" y="739.8" as="targetPoint" />
          </mxGeometry>
        </mxCell>
        <mxCell id="CO2slaWPiMj6zAx4tyRY-22" value="" style="endArrow=classic;html=1;rounded=0;" parent="1" edge="1">
          <mxGeometry width="50" height="50" relative="1" as="geometry">
            <mxPoint x="880" y="749.8" as="sourcePoint" />
            <mxPoint x="910" y="749.8" as="targetPoint" />
          </mxGeometry>
        </mxCell>
        <mxCell id="CO2slaWPiMj6zAx4tyRY-23" value="" style="endArrow=classic;html=1;rounded=0;" parent="1" edge="1">
          <mxGeometry width="50" height="50" relative="1" as="geometry">
            <mxPoint x="880" y="759.8" as="sourcePoint" />
            <mxPoint x="910" y="759.8" as="targetPoint" />
          </mxGeometry>
        </mxCell>
        <mxCell id="CO2slaWPiMj6zAx4tyRY-24" value="" style="endArrow=classic;html=1;rounded=0;" parent="1" edge="1">
          <mxGeometry width="50" height="50" relative="1" as="geometry">
            <mxPoint x="880" y="729.8" as="sourcePoint" />
            <mxPoint x="910" y="729.8" as="targetPoint" />
          </mxGeometry>
        </mxCell>
        <mxCell id="CO2slaWPiMj6zAx4tyRY-25" value="&lt;font color=&quot;#999999&quot; style=&quot;font-size: 10px;&quot;&gt;MOUSE_X_POS&lt;/font&gt;" style="text;html=1;align=center;verticalAlign=middle;resizable=0;points=[];autosize=1;strokeColor=none;fillColor=none;allowArrows=1;pointerEvents=0;fontSize=10;" parent="1" vertex="1">
          <mxGeometry x="788" y="685" width="100" height="30" as="geometry" />
        </mxCell>
        <mxCell id="CO2slaWPiMj6zAx4tyRY-26" value="&lt;font color=&quot;#999999&quot; style=&quot;font-size: 10px;&quot;&gt;MOUSE_Y_POS&lt;/font&gt;" style="text;html=1;align=center;verticalAlign=middle;resizable=0;points=[];autosize=1;strokeColor=none;fillColor=none;allowArrows=1;pointerEvents=0;fontSize=10;" parent="1" vertex="1">
          <mxGeometry x="788" y="695" width="100" height="30" as="geometry" />
        </mxCell>
        <mxCell id="CO2slaWPiMj6zAx4tyRY-27" value="&lt;font color=&quot;#999999&quot; style=&quot;font-size: 10px;&quot;&gt;enable_mouse_display&lt;/font&gt;" style="text;html=1;align=center;verticalAlign=middle;resizable=0;points=[];autosize=1;strokeColor=none;fillColor=none;allowArrows=1;pointerEvents=0;fontSize=10;" parent="1" vertex="1">
          <mxGeometry x="759" y="714" width="130" height="30" as="geometry" />
        </mxCell>
        <mxCell id="CO2slaWPiMj6zAx4tyRY-28" value="&lt;font color=&quot;#999999&quot; style=&quot;font-size: 10px;&quot;&gt;red&lt;/font&gt;" style="text;html=1;align=center;verticalAlign=middle;resizable=0;points=[];autosize=1;strokeColor=none;fillColor=none;allowArrows=1;pointerEvents=0;fontSize=10;" parent="1" vertex="1">
          <mxGeometry x="848" y="725" width="40" height="30" as="geometry" />
        </mxCell>
        <mxCell id="CO2slaWPiMj6zAx4tyRY-29" value="&lt;font color=&quot;#999999&quot; style=&quot;font-size: 10px;&quot;&gt;green&lt;/font&gt;" style="text;html=1;align=center;verticalAlign=middle;resizable=0;points=[];autosize=1;strokeColor=none;fillColor=none;allowArrows=1;pointerEvents=0;fontSize=10;" parent="1" vertex="1">
          <mxGeometry x="838" y="734" width="50" height="30" as="geometry" />
        </mxCell>
        <mxCell id="CO2slaWPiMj6zAx4tyRY-30" value="&lt;font color=&quot;#999999&quot; style=&quot;font-size: 10px;&quot;&gt;blue&lt;/font&gt;" style="text;html=1;align=center;verticalAlign=middle;resizable=0;points=[];autosize=1;strokeColor=none;fillColor=none;allowArrows=1;pointerEvents=0;fontSize=10;" parent="1" vertex="1">
          <mxGeometry x="846" y="744" width="40" height="30" as="geometry" />
        </mxCell>
        <mxCell id="j0vrCCAS_r7O7FLvVMWS-1" value="&lt;b&gt;&lt;font style=&quot;font-size: 16px;&quot;&gt;Start&lt;/font&gt;&lt;/b&gt;" style="ellipse;whiteSpace=wrap;html=1;" vertex="1" parent="1">
          <mxGeometry x="80" y="80" width="80" height="80" as="geometry" />
        </mxCell>
        <mxCell id="j0vrCCAS_r7O7FLvVMWS-2" value="&lt;b&gt;&lt;font style=&quot;font-size: 16px;&quot;&gt;Menu&lt;/font&gt;&lt;/b&gt;" style="ellipse;whiteSpace=wrap;html=1;" vertex="1" parent="1">
          <mxGeometry x="200" y="80" width="80" height="80" as="geometry" />
        </mxCell>
        <mxCell id="j0vrCCAS_r7O7FLvVMWS-15" style="rounded=0;orthogonalLoop=1;jettySize=auto;html=1;exitX=1;exitY=0.5;exitDx=0;exitDy=0;entryX=0;entryY=0.5;entryDx=0;entryDy=0;" edge="1" parent="1" source="j0vrCCAS_r7O7FLvVMWS-3" target="j0vrCCAS_r7O7FLvVMWS-13">
          <mxGeometry relative="1" as="geometry" />
        </mxCell>
        <mxCell id="j0vrCCAS_r7O7FLvVMWS-3" value="&lt;b&gt;&lt;font style=&quot;font-size: 16px;&quot;&gt;Level 1&lt;/font&gt;&lt;/b&gt;" style="ellipse;whiteSpace=wrap;html=1;" vertex="1" parent="1">
          <mxGeometry x="320" y="40" width="80" height="40" as="geometry" />
        </mxCell>
        <mxCell id="j0vrCCAS_r7O7FLvVMWS-4" value="&lt;b&gt;&lt;font style=&quot;font-size: 16px;&quot;&gt;Level 2&lt;/font&gt;&lt;/b&gt;" style="ellipse;whiteSpace=wrap;html=1;" vertex="1" parent="1">
          <mxGeometry x="320" y="100" width="80" height="40" as="geometry" />
        </mxCell>
        <mxCell id="j0vrCCAS_r7O7FLvVMWS-5" value="&lt;b&gt;&lt;font style=&quot;font-size: 16px;&quot;&gt;Level 3&lt;/font&gt;&lt;/b&gt;" style="ellipse;whiteSpace=wrap;html=1;" vertex="1" parent="1">
          <mxGeometry x="320" y="160" width="80" height="40" as="geometry" />
        </mxCell>
        <mxCell id="j0vrCCAS_r7O7FLvVMWS-6" value="" style="endArrow=classic;html=1;rounded=0;exitX=1;exitY=0.5;exitDx=0;exitDy=0;" edge="1" parent="1" source="j0vrCCAS_r7O7FLvVMWS-1">
          <mxGeometry width="50" height="50" relative="1" as="geometry">
            <mxPoint x="150" y="170" as="sourcePoint" />
            <mxPoint x="200" y="120" as="targetPoint" />
          </mxGeometry>
        </mxCell>
        <mxCell id="j0vrCCAS_r7O7FLvVMWS-7" value="" style="endArrow=classic;html=1;rounded=0;exitX=1;exitY=0.5;exitDx=0;exitDy=0;" edge="1" parent="1">
          <mxGeometry width="50" height="50" relative="1" as="geometry">
            <mxPoint x="280" y="120" as="sourcePoint" />
            <mxPoint x="320" y="120" as="targetPoint" />
          </mxGeometry>
        </mxCell>
        <mxCell id="j0vrCCAS_r7O7FLvVMWS-8" value="" style="endArrow=classic;html=1;rounded=0;exitX=1;exitY=0;exitDx=0;exitDy=0;entryX=0;entryY=0.5;entryDx=0;entryDy=0;" edge="1" parent="1" source="j0vrCCAS_r7O7FLvVMWS-2" target="j0vrCCAS_r7O7FLvVMWS-3">
          <mxGeometry width="50" height="50" relative="1" as="geometry">
            <mxPoint x="280" y="29.75999999999999" as="sourcePoint" />
            <mxPoint x="320" y="29.75999999999999" as="targetPoint" />
          </mxGeometry>
        </mxCell>
        <mxCell id="j0vrCCAS_r7O7FLvVMWS-9" value="" style="endArrow=classic;html=1;rounded=0;exitX=1;exitY=1;exitDx=0;exitDy=0;entryX=0;entryY=0.5;entryDx=0;entryDy=0;" edge="1" parent="1" source="j0vrCCAS_r7O7FLvVMWS-2" target="j0vrCCAS_r7O7FLvVMWS-5">
          <mxGeometry width="50" height="50" relative="1" as="geometry">
            <mxPoint x="278" y="102" as="sourcePoint" />
            <mxPoint x="330" y="39.75999999999999" as="targetPoint" />
          </mxGeometry>
        </mxCell>
        <mxCell id="j0vrCCAS_r7O7FLvVMWS-21" style="edgeStyle=orthogonalEdgeStyle;rounded=0;orthogonalLoop=1;jettySize=auto;html=1;exitX=1;exitY=0.5;exitDx=0;exitDy=0;entryX=0.5;entryY=0;entryDx=0;entryDy=0;" edge="1" parent="1" source="j0vrCCAS_r7O7FLvVMWS-13" target="j0vrCCAS_r7O7FLvVMWS-2">
          <mxGeometry relative="1" as="geometry">
            <Array as="points">
              <mxPoint x="530" y="80" />
              <mxPoint x="530" y="30" />
              <mxPoint x="240" y="30" />
            </Array>
          </mxGeometry>
        </mxCell>
        <mxCell id="j0vrCCAS_r7O7FLvVMWS-13" value="&lt;b&gt;&lt;font style=&quot;font-size: 16px;&quot;&gt;Win&lt;/font&gt;&lt;/b&gt;" style="ellipse;whiteSpace=wrap;html=1;" vertex="1" parent="1">
          <mxGeometry x="430" y="50" width="80" height="60" as="geometry" />
        </mxCell>
        <mxCell id="j0vrCCAS_r7O7FLvVMWS-22" style="edgeStyle=orthogonalEdgeStyle;rounded=0;orthogonalLoop=1;jettySize=auto;html=1;exitX=1;exitY=0.5;exitDx=0;exitDy=0;entryX=0.5;entryY=1;entryDx=0;entryDy=0;" edge="1" parent="1" source="j0vrCCAS_r7O7FLvVMWS-14" target="j0vrCCAS_r7O7FLvVMWS-2">
          <mxGeometry relative="1" as="geometry">
            <Array as="points">
              <mxPoint x="530" y="160" />
              <mxPoint x="530" y="210" />
              <mxPoint x="240" y="210" />
            </Array>
          </mxGeometry>
        </mxCell>
        <mxCell id="j0vrCCAS_r7O7FLvVMWS-14" value="&lt;b&gt;&lt;font style=&quot;font-size: 16px;&quot;&gt;Lose&lt;/font&gt;&lt;/b&gt;" style="ellipse;whiteSpace=wrap;html=1;" vertex="1" parent="1">
          <mxGeometry x="430" y="130" width="80" height="60" as="geometry" />
        </mxCell>
        <mxCell id="j0vrCCAS_r7O7FLvVMWS-16" style="rounded=0;orthogonalLoop=1;jettySize=auto;html=1;exitX=1;exitY=0.5;exitDx=0;exitDy=0;entryX=0;entryY=0.5;entryDx=0;entryDy=0;" edge="1" parent="1" source="j0vrCCAS_r7O7FLvVMWS-4">
          <mxGeometry relative="1" as="geometry">
            <mxPoint x="400" y="60" as="sourcePoint" />
            <mxPoint x="430" y="80" as="targetPoint" />
          </mxGeometry>
        </mxCell>
        <mxCell id="j0vrCCAS_r7O7FLvVMWS-17" style="rounded=0;orthogonalLoop=1;jettySize=auto;html=1;exitX=1;exitY=0.5;exitDx=0;exitDy=0;entryX=0;entryY=0.5;entryDx=0;entryDy=0;" edge="1" parent="1" source="j0vrCCAS_r7O7FLvVMWS-5" target="j0vrCCAS_r7O7FLvVMWS-13">
          <mxGeometry relative="1" as="geometry">
            <mxPoint x="410" y="130" as="sourcePoint" />
            <mxPoint x="440" y="90" as="targetPoint" />
          </mxGeometry>
        </mxCell>
        <mxCell id="j0vrCCAS_r7O7FLvVMWS-18" style="rounded=0;orthogonalLoop=1;jettySize=auto;html=1;entryX=0;entryY=0.5;entryDx=0;entryDy=0;" edge="1" parent="1" target="j0vrCCAS_r7O7FLvVMWS-14">
          <mxGeometry relative="1" as="geometry">
            <mxPoint x="400" y="180" as="sourcePoint" />
            <mxPoint x="440" y="90" as="targetPoint" />
          </mxGeometry>
        </mxCell>
        <mxCell id="j0vrCCAS_r7O7FLvVMWS-19" style="rounded=0;orthogonalLoop=1;jettySize=auto;html=1;entryX=0;entryY=0.5;entryDx=0;entryDy=0;exitX=1;exitY=0.5;exitDx=0;exitDy=0;" edge="1" parent="1" source="j0vrCCAS_r7O7FLvVMWS-4">
          <mxGeometry relative="1" as="geometry">
            <mxPoint x="400" y="180" as="sourcePoint" />
            <mxPoint x="430" y="160" as="targetPoint" />
          </mxGeometry>
        </mxCell>
        <mxCell id="j0vrCCAS_r7O7FLvVMWS-20" style="rounded=0;orthogonalLoop=1;jettySize=auto;html=1;entryX=0;entryY=0.5;entryDx=0;entryDy=0;exitX=1;exitY=0.5;exitDx=0;exitDy=0;" edge="1" parent="1" source="j0vrCCAS_r7O7FLvVMWS-3">
          <mxGeometry relative="1" as="geometry">
            <mxPoint x="400" y="120" as="sourcePoint" />
            <mxPoint x="430" y="160" as="targetPoint" />
          </mxGeometry>
        </mxCell>
        <mxCell id="j0vrCCAS_r7O7FLvVMWS-24" value="Pixel Gen" style="rounded=0;whiteSpace=wrap;html=1;" vertex="1" parent="1">
          <mxGeometry x="80" y="360" width="80" height="50" as="geometry" />
        </mxCell>
        <mxCell id="j0vrCCAS_r7O7FLvVMWS-26" value="Enemy" style="shape=internalStorage;whiteSpace=wrap;html=1;backgroundOutline=1;dx=6;dy=6;" vertex="1" parent="1">
          <mxGeometry x="400" y="420" width="80" height="50" as="geometry" />
        </mxCell>
        <mxCell id="j0vrCCAS_r7O7FLvVMWS-27" value="Army" style="shape=internalStorage;whiteSpace=wrap;html=1;backgroundOutline=1;dx=6;dy=6;" vertex="1" parent="1">
          <mxGeometry x="400" y="480" width="80" height="50" as="geometry" />
        </mxCell>
        <mxCell id="j0vrCCAS_r7O7FLvVMWS-28" value="Enemy&lt;div&gt;Queue&lt;/div&gt;" style="shape=internalStorage;whiteSpace=wrap;html=1;backgroundOutline=1;dx=6;dy=6;" vertex="1" parent="1">
          <mxGeometry x="400" y="360" width="80" height="50" as="geometry" />
        </mxCell>
        <mxCell id="j0vrCCAS_r7O7FLvVMWS-30" value="VGA Display" style="shape=parallelogram;perimeter=parallelogramPerimeter;whiteSpace=wrap;html=1;fixedSize=1;size=12;" vertex="1" parent="1">
          <mxGeometry x="80" y="270" width="90" height="50" as="geometry" />
        </mxCell>
        <mxCell id="j0vrCCAS_r7O7FLvVMWS-31" value="Mouse" style="shape=parallelogram;perimeter=parallelogramPerimeter;whiteSpace=wrap;html=1;fixedSize=1;size=12;" vertex="1" parent="1">
          <mxGeometry x="200" y="270" width="90" height="50" as="geometry" />
        </mxCell>
        <mxCell id="j0vrCCAS_r7O7FLvVMWS-32" style="edgeStyle=orthogonalEdgeStyle;rounded=0;orthogonalLoop=1;jettySize=auto;html=1;exitX=0.5;exitY=0;exitDx=0;exitDy=0;entryX=0.444;entryY=1;entryDx=0;entryDy=0;entryPerimeter=0;" edge="1" parent="1" source="j0vrCCAS_r7O7FLvVMWS-24" target="j0vrCCAS_r7O7FLvVMWS-30">
          <mxGeometry relative="1" as="geometry">
            <mxPoint x="120" y="340" as="targetPoint" />
          </mxGeometry>
        </mxCell>
        <mxCell id="j0vrCCAS_r7O7FLvVMWS-34" style="edgeStyle=orthogonalEdgeStyle;rounded=0;orthogonalLoop=1;jettySize=auto;html=1;exitX=0.5;exitY=0;exitDx=0;exitDy=0;entryX=0.444;entryY=1;entryDx=0;entryDy=0;entryPerimeter=0;startArrow=classic;startFill=1;endArrow=none;endFill=0;" edge="1" parent="1">
          <mxGeometry relative="1" as="geometry">
            <mxPoint x="240" y="360" as="sourcePoint" />
            <mxPoint x="240" y="320" as="targetPoint" />
            <Array as="points">
              <mxPoint x="240" y="340" />
              <mxPoint x="240" y="340" />
            </Array>
          </mxGeometry>
        </mxCell>
        <mxCell id="j0vrCCAS_r7O7FLvVMWS-36" style="edgeStyle=orthogonalEdgeStyle;rounded=0;orthogonalLoop=1;jettySize=auto;html=1;exitX=0.5;exitY=0;exitDx=0;exitDy=0;entryX=0.5;entryY=1;entryDx=0;entryDy=0;" edge="1" parent="1" source="j0vrCCAS_r7O7FLvVMWS-35" target="j0vrCCAS_r7O7FLvVMWS-24">
          <mxGeometry relative="1" as="geometry" />
        </mxCell>
        <mxCell id="j0vrCCAS_r7O7FLvVMWS-35" value="Pictures/&lt;div&gt;Fonts&lt;/div&gt;" style="shape=internalStorage;whiteSpace=wrap;html=1;backgroundOutline=1;dx=6;dy=6;" vertex="1" parent="1">
          <mxGeometry x="80" y="430" width="80" height="50" as="geometry" />
        </mxCell>
        <mxCell id="j0vrCCAS_r7O7FLvVMWS-37" value="Top&lt;div&gt;(State)&lt;/div&gt;" style="rounded=0;whiteSpace=wrap;html=1;" vertex="1" parent="1">
          <mxGeometry x="200" y="360" width="80" height="120" as="geometry" />
        </mxCell>
        <mxCell id="j0vrCCAS_r7O7FLvVMWS-38" value="Game&lt;div&gt;Engine&lt;/div&gt;" style="rounded=0;whiteSpace=wrap;html=1;" vertex="1" parent="1">
          <mxGeometry x="300" y="360" width="80" height="170" as="geometry" />
        </mxCell>
        <mxCell id="j0vrCCAS_r7O7FLvVMWS-39" style="edgeStyle=orthogonalEdgeStyle;rounded=0;orthogonalLoop=1;jettySize=auto;html=1;exitX=0;exitY=0.5;exitDx=0;exitDy=0;entryX=1;entryY=0.147;entryDx=0;entryDy=0;entryPerimeter=0;startArrow=classic;startFill=1;" edge="1" parent="1" source="j0vrCCAS_r7O7FLvVMWS-28" target="j0vrCCAS_r7O7FLvVMWS-38">
          <mxGeometry relative="1" as="geometry" />
        </mxCell>
        <mxCell id="j0vrCCAS_r7O7FLvVMWS-40" style="edgeStyle=orthogonalEdgeStyle;rounded=0;orthogonalLoop=1;jettySize=auto;html=1;exitX=0;exitY=0.5;exitDx=0;exitDy=0;entryX=1;entryY=0.147;entryDx=0;entryDy=0;entryPerimeter=0;startArrow=classic;startFill=1;" edge="1" parent="1">
          <mxGeometry relative="1" as="geometry">
            <mxPoint x="400" y="445" as="sourcePoint" />
            <mxPoint x="380" y="445" as="targetPoint" />
          </mxGeometry>
        </mxCell>
        <mxCell id="j0vrCCAS_r7O7FLvVMWS-41" style="edgeStyle=orthogonalEdgeStyle;rounded=0;orthogonalLoop=1;jettySize=auto;html=1;exitX=0;exitY=0.5;exitDx=0;exitDy=0;entryX=1;entryY=0.147;entryDx=0;entryDy=0;entryPerimeter=0;startArrow=classic;startFill=1;" edge="1" parent="1">
          <mxGeometry relative="1" as="geometry">
            <mxPoint x="400" y="505" as="sourcePoint" />
            <mxPoint x="380" y="505" as="targetPoint" />
          </mxGeometry>
        </mxCell>
        <mxCell id="j0vrCCAS_r7O7FLvVMWS-42" style="edgeStyle=orthogonalEdgeStyle;rounded=0;orthogonalLoop=1;jettySize=auto;html=1;exitX=0;exitY=0.208;exitDx=0;exitDy=0;entryX=0;entryY=0.208;entryDx=0;entryDy=0;entryPerimeter=0;exitPerimeter=0;" edge="1" parent="1" source="j0vrCCAS_r7O7FLvVMWS-37">
          <mxGeometry relative="1" as="geometry">
            <mxPoint x="190" y="384.96000000000004" as="sourcePoint" />
            <mxPoint x="160" y="384.96000000000004" as="targetPoint" />
          </mxGeometry>
        </mxCell>
        <mxCell id="j0vrCCAS_r7O7FLvVMWS-43" style="edgeStyle=orthogonalEdgeStyle;rounded=0;orthogonalLoop=1;jettySize=auto;html=1;exitX=0;exitY=0.208;exitDx=0;exitDy=0;entryX=0;entryY=0.208;entryDx=0;entryDy=0;entryPerimeter=0;exitPerimeter=0;" edge="1" parent="1">
          <mxGeometry relative="1" as="geometry">
            <mxPoint x="200" y="455" as="sourcePoint" />
            <mxPoint x="160" y="454.96000000000004" as="targetPoint" />
            <Array as="points">
              <mxPoint x="181" y="455" />
              <mxPoint x="181" y="455" />
            </Array>
          </mxGeometry>
        </mxCell>
        <mxCell id="j0vrCCAS_r7O7FLvVMWS-44" style="edgeStyle=orthogonalEdgeStyle;rounded=0;orthogonalLoop=1;jettySize=auto;html=1;exitX=1;exitY=0.5;exitDx=0;exitDy=0;entryX=0;entryY=0.354;entryDx=0;entryDy=0;entryPerimeter=0;startArrow=classic;startFill=1;" edge="1" parent="1" source="j0vrCCAS_r7O7FLvVMWS-37" target="j0vrCCAS_r7O7FLvVMWS-38">
          <mxGeometry relative="1" as="geometry" />
        </mxCell>
        <mxCell id="j0vrCCAS_r7O7FLvVMWS-45" value="" style="rounded=0;whiteSpace=wrap;html=1;fillColor=none;dashed=1;" vertex="1" parent="1">
          <mxGeometry x="180" y="340" width="320" height="210" as="geometry" />
        </mxCell>
      </root>
    </mxGraphModel>
  </diagram>
</mxfile>
